<mxfile host="Electron" modified="2023-12-28T13:28:55.764Z" agent="Mozilla/5.0 (Windows NT 10.0; Win64; x64) AppleWebKit/537.36 (KHTML, like Gecko) draw.io/22.1.2 Chrome/114.0.5735.289 Electron/25.9.4 Safari/537.36" etag="2wXwYE3bezGQ_-wpq7b6" version="22.1.2" type="device" pages="2">
  <diagram name="App Service PaaS Auth" id="J0kEoaDPSvpVxaNFogBW">
    <mxGraphModel dx="1418" dy="820" grid="1" gridSize="10" guides="1" tooltips="1" connect="1" arrows="1" fold="1" page="1" pageScale="1" pageWidth="1100" pageHeight="850" background="none" math="0" shadow="0">
      <root>
        <mxCell id="TxJ0xP_LkDmAu8PP4f3W-0" />
        <mxCell id="TxJ0xP_LkDmAu8PP4f3W-1" parent="TxJ0xP_LkDmAu8PP4f3W-0" />
        <mxCell id="TxJ0xP_LkDmAu8PP4f3W-2" value="&lt;font style=&quot;font-size: 12px; font-weight: normal;&quot;&gt;Azure&lt;/font&gt;" style="swimlane;html=1;childLayout=stackLayout;startSize=20;rounded=0;shadow=0;labelBackgroundColor=none;strokeWidth=1;fontFamily=Verdana;fontSize=8;align=center;" parent="TxJ0xP_LkDmAu8PP4f3W-1" vertex="1">
          <mxGeometry x="70" y="40" width="910" height="520" as="geometry" />
        </mxCell>
        <mxCell id="TxJ0xP_LkDmAu8PP4f3W-7" value="Developer CLI &lt;span style=&quot;font-weight: normal;&quot;&gt;(AZD)&lt;/span&gt;" style="swimlane;html=1;startSize=40;" parent="TxJ0xP_LkDmAu8PP4f3W-2" vertex="1">
          <mxGeometry y="20" width="230" height="500" as="geometry" />
        </mxCell>
        <mxCell id="DdFleMHpm2gLT70RBmjc-2" value="" style="shape=image;verticalLabelPosition=bottom;labelBackgroundColor=default;verticalAlign=top;aspect=fixed;imageAspect=0;image=https://azure.github.io/awesome-azd/img/logo.png;" parent="TxJ0xP_LkDmAu8PP4f3W-7" vertex="1">
          <mxGeometry x="8" width="38" height="38" as="geometry" />
        </mxCell>
        <mxCell id="pMR1qo70U6GUIszaFT5R-0" value="&lt;font style=&quot;font-size: 12px;&quot;&gt;azd provision&lt;/font&gt;" style="rounded=1;whiteSpace=wrap;html=1;shadow=0;labelBackgroundColor=none;strokeWidth=1;fontFamily=Verdana;fontSize=8;align=center;" parent="TxJ0xP_LkDmAu8PP4f3W-7" vertex="1">
          <mxGeometry x="55" y="122" width="100" height="30" as="geometry" />
        </mxCell>
        <mxCell id="caCMUqzHrhD5SodGUe4n-0" value="&lt;font style=&quot;font-size: 12px;&quot;&gt;azd postprovision&lt;/font&gt;" style="rounded=1;whiteSpace=wrap;html=1;shadow=0;labelBackgroundColor=none;strokeWidth=1;fontFamily=Verdana;fontSize=8;align=center;" parent="TxJ0xP_LkDmAu8PP4f3W-7" vertex="1">
          <mxGeometry x="47.5" y="184" width="115" height="30" as="geometry" />
        </mxCell>
        <mxCell id="okkkJ67Kpcoh9UKUz367-23" value="" style="edgeStyle=elbowEdgeStyle;elbow=horizontal;endArrow=classic;html=1;curved=0;rounded=0;endSize=8;startSize=8;exitX=0.5;exitY=1;exitDx=0;exitDy=0;entryX=0.5;entryY=0;entryDx=0;entryDy=0;fillColor=#f8cecc;strokeColor=#050505;" parent="TxJ0xP_LkDmAu8PP4f3W-7" source="pMR1qo70U6GUIszaFT5R-0" target="caCMUqzHrhD5SodGUe4n-0" edge="1">
          <mxGeometry width="50" height="50" relative="1" as="geometry">
            <mxPoint x="165" y="147" as="sourcePoint" />
            <mxPoint x="260" y="147" as="targetPoint" />
            <Array as="points">
              <mxPoint x="105" y="170" />
            </Array>
          </mxGeometry>
        </mxCell>
        <mxCell id="okkkJ67Kpcoh9UKUz367-25" value="&lt;div style=&quot;color: rgb(187, 187, 187); background-color: rgb(38, 35, 53); font-family: Consolas, &amp;quot;Courier New&amp;quot;, monospace; font-weight: normal; line-height: 19px;&quot;&gt;&lt;div style=&quot;&quot;&gt;&lt;span style=&quot;color: rgb(114, 241, 184); font-style: italic;&quot;&gt;&lt;font style=&quot;font-size: 11px;&quot;&gt;useEntraIDAuthentication=true&lt;/font&gt;&lt;/span&gt;&lt;/div&gt;&lt;/div&gt;" style="text;whiteSpace=wrap;html=1;align=center;" parent="TxJ0xP_LkDmAu8PP4f3W-7" vertex="1">
          <mxGeometry x="20" y="60" width="190" height="40" as="geometry" />
        </mxCell>
        <mxCell id="okkkJ67Kpcoh9UKUz367-26" value="" style="edgeStyle=elbowEdgeStyle;elbow=horizontal;endArrow=classic;html=1;curved=0;rounded=0;endSize=8;startSize=8;entryX=0.5;entryY=0;entryDx=0;entryDy=0;fillColor=#f8cecc;strokeColor=#050505;dashed=1;" parent="TxJ0xP_LkDmAu8PP4f3W-7" edge="1">
          <mxGeometry width="50" height="50" relative="1" as="geometry">
            <mxPoint x="105.09090909090901" y="93" as="sourcePoint" />
            <mxPoint x="105" y="115" as="targetPoint" />
            <Array as="points" />
          </mxGeometry>
        </mxCell>
        <mxCell id="okkkJ67Kpcoh9UKUz367-27" value="&lt;div style=&quot;color: rgb(187, 187, 187); background-color: rgb(38, 35, 53); font-family: Consolas, &amp;quot;Courier New&amp;quot;, monospace; font-weight: normal; line-height: 19px;&quot;&gt;&lt;div style=&quot;&quot;&gt;&lt;span style=&quot;color: rgb(114, 241, 184); font-style: italic;&quot;&gt;&lt;font style=&quot;font-size: 11px;&quot;&gt;useAPIM=true&lt;/font&gt;&lt;/span&gt;&lt;/div&gt;&lt;/div&gt;" style="text;whiteSpace=wrap;html=1;align=center;" parent="TxJ0xP_LkDmAu8PP4f3W-7" vertex="1">
          <mxGeometry x="58.5" y="228" width="95" height="24" as="geometry" />
        </mxCell>
        <mxCell id="okkkJ67Kpcoh9UKUz367-30" value="&lt;font style=&quot;font-size: 12px;&quot;&gt;azd provision&lt;/font&gt;" style="rounded=1;whiteSpace=wrap;html=1;shadow=0;labelBackgroundColor=none;strokeWidth=1;fontFamily=Verdana;fontSize=8;align=center;" parent="TxJ0xP_LkDmAu8PP4f3W-7" vertex="1">
          <mxGeometry x="55" y="280" width="100" height="30" as="geometry" />
        </mxCell>
        <mxCell id="okkkJ67Kpcoh9UKUz367-33" value="" style="edgeStyle=elbowEdgeStyle;elbow=vertical;endArrow=classic;html=1;curved=0;rounded=0;endSize=8;startSize=8;exitX=0.162;exitY=1.017;exitDx=0;exitDy=0;entryX=0.05;entryY=0;entryDx=0;entryDy=0;fillColor=#f8cecc;strokeColor=#050505;entryPerimeter=0;exitPerimeter=0;dashed=1;" parent="TxJ0xP_LkDmAu8PP4f3W-7" source="caCMUqzHrhD5SodGUe4n-0" edge="1">
          <mxGeometry width="50" height="50" relative="1" as="geometry">
            <mxPoint x="63" y="214" as="sourcePoint" />
            <mxPoint x="66" y="280" as="targetPoint" />
            <Array as="points">
              <mxPoint x="63" y="232" />
            </Array>
          </mxGeometry>
        </mxCell>
        <mxCell id="TxJ0xP_LkDmAu8PP4f3W-11" value="App Service" style="swimlane;html=1;startSize=40;" parent="TxJ0xP_LkDmAu8PP4f3W-2" vertex="1">
          <mxGeometry x="230" y="20" width="380" height="500" as="geometry">
            <mxRectangle y="20" width="40" height="360" as="alternateBounds" />
          </mxGeometry>
        </mxCell>
        <mxCell id="DdFleMHpm2gLT70RBmjc-0" value="Identity Provider&lt;br&gt;&lt;span style=&quot;font-weight: normal;&quot;&gt;Microsoft Entra ID&lt;/span&gt;" style="swimlane;html=1;startSize=40;verticalAlign=middle;" parent="TxJ0xP_LkDmAu8PP4f3W-11" vertex="1">
          <mxGeometry y="40" width="190" height="460" as="geometry">
            <mxRectangle y="20" width="40" height="360" as="alternateBounds" />
          </mxGeometry>
        </mxCell>
        <mxCell id="TxJ0xP_LkDmAu8PP4f3W-23" value="" style="shape=image;verticalLabelPosition=bottom;labelBackgroundColor=default;verticalAlign=top;aspect=fixed;imageAspect=0;image=https://upload.wikimedia.org/wikipedia/commons/thumb/3/34/Windows_logo_-_2012_derivative.svg/1024px-Windows_logo_-_2012_derivative.svg.png;" parent="DdFleMHpm2gLT70RBmjc-0" vertex="1">
          <mxGeometry x="30" y="23" width="10" height="10" as="geometry" />
        </mxCell>
        <mxCell id="pMR1qo70U6GUIszaFT5R-1" value="&lt;font style=&quot;font-size: 11px;&quot;&gt;Configure App auth settings v2&lt;/font&gt;" style="rounded=1;whiteSpace=wrap;html=1;shadow=0;labelBackgroundColor=none;strokeWidth=1;fontFamily=Verdana;fontSize=8;align=center;" parent="DdFleMHpm2gLT70RBmjc-0" vertex="1">
          <mxGeometry x="40" y="77" width="100" height="40" as="geometry" />
        </mxCell>
        <mxCell id="okkkJ67Kpcoh9UKUz367-12" value="&lt;font style=&quot;font-size: 11px;&quot;&gt;Request JWT token&lt;/font&gt;" style="rounded=1;whiteSpace=wrap;html=1;shadow=0;labelBackgroundColor=none;strokeWidth=1;fontFamily=Verdana;fontSize=8;align=center;" parent="DdFleMHpm2gLT70RBmjc-0" vertex="1">
          <mxGeometry x="45" y="390" width="100" height="40" as="geometry" />
        </mxCell>
        <mxCell id="DdFleMHpm2gLT70RBmjc-1" value="App Registration" style="swimlane;html=1;startSize=40;verticalAlign=middle;" parent="TxJ0xP_LkDmAu8PP4f3W-11" vertex="1">
          <mxGeometry x="190" y="40" width="190" height="460" as="geometry">
            <mxRectangle y="20" width="40" height="360" as="alternateBounds" />
          </mxGeometry>
        </mxCell>
        <mxCell id="2zMvVns0jBvbQEaveiYE-0" value="" style="image;aspect=fixed;html=1;points=[];align=center;fontSize=12;image=img/lib/azure2/identity/App_Registrations.svg;" parent="DdFleMHpm2gLT70RBmjc-1" vertex="1">
          <mxGeometry x="18" y="9" width="20.68" height="21" as="geometry" />
        </mxCell>
        <mxCell id="nA9Qir65aABFyxPnygtA-0" value="&lt;font style=&quot;font-size: 11px;&quot;&gt;Create with access token version 2 for Entra v2 endpoint&lt;/font&gt;" style="rounded=1;whiteSpace=wrap;html=1;shadow=0;labelBackgroundColor=none;strokeWidth=1;fontFamily=Verdana;fontSize=8;align=center;" parent="DdFleMHpm2gLT70RBmjc-1" vertex="1">
          <mxGeometry x="20" y="122" width="150" height="59" as="geometry" />
        </mxCell>
        <mxCell id="nA9Qir65aABFyxPnygtA-1" value="&lt;font style=&quot;font-size: 11px;&quot;&gt;Authorize APIM scopes&lt;/font&gt;" style="rounded=1;whiteSpace=wrap;html=1;shadow=0;labelBackgroundColor=none;strokeWidth=1;fontFamily=Verdana;fontSize=8;align=center;" parent="DdFleMHpm2gLT70RBmjc-1" vertex="1">
          <mxGeometry x="20" y="268" width="150" height="40" as="geometry" />
        </mxCell>
        <mxCell id="okkkJ67Kpcoh9UKUz367-1" value="&lt;font style=&quot;font-size: 11px;&quot;&gt;Generate Secret and store in Key Vault&lt;/font&gt;" style="rounded=1;whiteSpace=wrap;html=1;shadow=0;labelBackgroundColor=none;strokeWidth=1;fontFamily=Verdana;fontSize=8;align=center;" parent="DdFleMHpm2gLT70RBmjc-1" vertex="1">
          <mxGeometry x="19" y="189" width="150" height="40" as="geometry" />
        </mxCell>
        <mxCell id="okkkJ67Kpcoh9UKUz367-9" value="&lt;font style=&quot;font-size: 11px;&quot;&gt;retrieve client app id and use APIM scopes&lt;/font&gt;" style="rounded=1;whiteSpace=wrap;html=1;shadow=0;labelBackgroundColor=none;strokeWidth=1;fontFamily=Verdana;fontSize=8;align=center;" parent="DdFleMHpm2gLT70RBmjc-1" vertex="1">
          <mxGeometry x="45" y="325" width="100" height="40" as="geometry" />
        </mxCell>
        <mxCell id="5hYApjeR-NjjEq_kIkVa-0" value="" style="image;aspect=fixed;html=1;points=[];align=center;fontSize=12;image=img/lib/azure2/compute/App_Services.svg;strokeColor=#80FF00;" parent="TxJ0xP_LkDmAu8PP4f3W-11" vertex="1">
          <mxGeometry x="124" y="9" width="22.5" height="22.5" as="geometry" />
        </mxCell>
        <mxCell id="TxJ0xP_LkDmAu8PP4f3W-21" value="API Management (APIM)" style="swimlane;html=1;startSize=40;" parent="TxJ0xP_LkDmAu8PP4f3W-2" vertex="1">
          <mxGeometry x="610" y="20" width="300" height="500" as="geometry" />
        </mxCell>
        <mxCell id="TxJ0xP_LkDmAu8PP4f3W-24" value="Instance" style="swimlane;html=1;startSize=40;" parent="TxJ0xP_LkDmAu8PP4f3W-21" vertex="1">
          <mxGeometry y="40" width="120" height="460" as="geometry" />
        </mxCell>
        <mxCell id="okkkJ67Kpcoh9UKUz367-13" value="&lt;font style=&quot;font-size: 11px;&quot;&gt;Validate token issuer and audience&lt;/font&gt;" style="rounded=1;whiteSpace=wrap;html=1;shadow=0;labelBackgroundColor=none;strokeWidth=1;fontFamily=Verdana;fontSize=8;align=center;" parent="TxJ0xP_LkDmAu8PP4f3W-24" vertex="1">
          <mxGeometry x="18.5" y="385" width="91.5" height="50" as="geometry" />
        </mxCell>
        <mxCell id="TxJ0xP_LkDmAu8PP4f3W-26" value="App Registration" style="swimlane;html=1;startSize=40;" parent="TxJ0xP_LkDmAu8PP4f3W-21" vertex="1">
          <mxGeometry x="120" y="40" width="180" height="460" as="geometry" />
        </mxCell>
        <mxCell id="2zMvVns0jBvbQEaveiYE-1" value="" style="image;aspect=fixed;html=1;points=[];align=center;fontSize=12;image=img/lib/azure2/identity/App_Registrations.svg;" parent="TxJ0xP_LkDmAu8PP4f3W-26" vertex="1">
          <mxGeometry x="19" y="9" width="20.68" height="21" as="geometry" />
        </mxCell>
        <mxCell id="okkkJ67Kpcoh9UKUz367-0" value="&lt;font style=&quot;font-size: 11px;&quot;&gt;Get API scopes&lt;/font&gt;" style="rounded=1;whiteSpace=wrap;html=1;shadow=0;labelBackgroundColor=none;strokeWidth=1;fontFamily=Verdana;fontSize=8;align=center;" parent="TxJ0xP_LkDmAu8PP4f3W-26" vertex="1">
          <mxGeometry x="27" y="227" width="125" height="40" as="geometry" />
        </mxCell>
        <mxCell id="okkkJ67Kpcoh9UKUz367-8" value="&lt;font style=&quot;font-size: 11px;&quot;&gt;Pre-authorize client app for scopes&lt;/font&gt;" style="rounded=1;whiteSpace=wrap;html=1;shadow=0;labelBackgroundColor=none;strokeWidth=1;fontFamily=Verdana;fontSize=8;align=center;" parent="TxJ0xP_LkDmAu8PP4f3W-26" vertex="1">
          <mxGeometry x="46" y="325" width="100" height="40" as="geometry" />
        </mxCell>
        <mxCell id="5cYQm8YY0smrO2BUzFCl-0" value="" style="image;sketch=0;aspect=fixed;html=1;points=[];align=center;fontSize=12;image=img/lib/mscae/API_Management.svg;" parent="TxJ0xP_LkDmAu8PP4f3W-21" vertex="1">
          <mxGeometry x="39" y="5" width="35" height="29.4" as="geometry" />
        </mxCell>
        <mxCell id="pMR1qo70U6GUIszaFT5R-2" value="" style="edgeStyle=elbowEdgeStyle;elbow=horizontal;endArrow=classic;html=1;curved=0;rounded=0;endSize=8;startSize=8;exitX=1;exitY=0.5;exitDx=0;exitDy=0;entryX=0;entryY=0.5;entryDx=0;entryDy=0;fillColor=#f8cecc;strokeColor=#b85450;" parent="TxJ0xP_LkDmAu8PP4f3W-2" source="pMR1qo70U6GUIszaFT5R-0" target="pMR1qo70U6GUIszaFT5R-1" edge="1">
          <mxGeometry width="50" height="50" relative="1" as="geometry">
            <mxPoint x="550" y="284" as="sourcePoint" />
            <mxPoint x="205" y="157" as="targetPoint" />
            <Array as="points">
              <mxPoint x="170" y="154" />
            </Array>
          </mxGeometry>
        </mxCell>
        <mxCell id="okkkJ67Kpcoh9UKUz367-2" value="" style="edgeStyle=elbowEdgeStyle;elbow=horizontal;endArrow=classic;html=1;curved=0;rounded=0;endSize=8;startSize=8;exitX=1;exitY=0.25;exitDx=0;exitDy=0;fillColor=#f8cecc;strokeColor=#b85450;entryX=0;entryY=0.5;entryDx=0;entryDy=0;" parent="TxJ0xP_LkDmAu8PP4f3W-2" source="caCMUqzHrhD5SodGUe4n-0" target="nA9Qir65aABFyxPnygtA-0" edge="1">
          <mxGeometry width="50" height="50" relative="1" as="geometry">
            <mxPoint x="710" y="270" as="sourcePoint" />
            <mxPoint x="419" y="200" as="targetPoint" />
          </mxGeometry>
        </mxCell>
        <mxCell id="okkkJ67Kpcoh9UKUz367-3" value="" style="edgeStyle=elbowEdgeStyle;elbow=horizontal;endArrow=classic;html=1;rounded=1;endSize=8;startSize=8;entryX=0;entryY=0.5;entryDx=0;entryDy=0;exitX=1;exitY=0.5;exitDx=0;exitDy=0;fillColor=#f8cecc;strokeColor=#b85450;" parent="TxJ0xP_LkDmAu8PP4f3W-2" source="caCMUqzHrhD5SodGUe4n-0" target="okkkJ67Kpcoh9UKUz367-1" edge="1">
          <mxGeometry width="50" height="50" relative="1" as="geometry">
            <mxPoint x="173" y="229" as="sourcePoint" />
            <mxPoint x="430" y="229" as="targetPoint" />
            <Array as="points">
              <mxPoint x="190" y="260" />
            </Array>
          </mxGeometry>
        </mxCell>
        <mxCell id="okkkJ67Kpcoh9UKUz367-4" value="" style="edgeStyle=elbowEdgeStyle;elbow=horizontal;endArrow=classic;html=1;rounded=1;endSize=8;startSize=8;entryX=0;entryY=0.5;entryDx=0;entryDy=0;fillColor=#f8cecc;strokeColor=#b85450;exitX=1;exitY=0.25;exitDx=0;exitDy=0;" parent="TxJ0xP_LkDmAu8PP4f3W-2" source="okkkJ67Kpcoh9UKUz367-30" target="okkkJ67Kpcoh9UKUz367-0" edge="1">
          <mxGeometry width="50" height="50" relative="1" as="geometry">
            <mxPoint x="150" y="280" as="sourcePoint" />
            <mxPoint x="805" y="315" as="targetPoint" />
            <Array as="points">
              <mxPoint x="450" y="300" />
            </Array>
          </mxGeometry>
        </mxCell>
        <mxCell id="okkkJ67Kpcoh9UKUz367-5" value="" style="edgeStyle=elbowEdgeStyle;elbow=horizontal;endArrow=classic;html=1;rounded=1;endSize=8;startSize=8;entryX=1;entryY=0.5;entryDx=0;entryDy=0;fillColor=#f8cecc;strokeColor=#b85450;" parent="TxJ0xP_LkDmAu8PP4f3W-2" target="nA9Qir65aABFyxPnygtA-1" edge="1">
          <mxGeometry width="50" height="50" relative="1" as="geometry">
            <mxPoint x="820" y="322" as="sourcePoint" />
            <mxPoint x="350" y="170" as="targetPoint" />
            <Array as="points">
              <mxPoint x="820" y="340" />
            </Array>
          </mxGeometry>
        </mxCell>
        <mxCell id="okkkJ67Kpcoh9UKUz367-10" value="" style="edgeStyle=elbowEdgeStyle;elbow=horizontal;endArrow=classic;html=1;curved=0;rounded=0;endSize=8;startSize=8;entryX=0;entryY=0.5;entryDx=0;entryDy=0;dashed=1;fillColor=#f8cecc;strokeColor=#b85450;exitX=1;exitY=0.75;exitDx=0;exitDy=0;" parent="TxJ0xP_LkDmAu8PP4f3W-2" source="okkkJ67Kpcoh9UKUz367-30" target="okkkJ67Kpcoh9UKUz367-9" edge="1">
          <mxGeometry width="50" height="50" relative="1" as="geometry">
            <mxPoint x="173" y="237" as="sourcePoint" />
            <mxPoint x="815" y="312" as="targetPoint" />
            <Array as="points">
              <mxPoint x="180" y="360" />
            </Array>
          </mxGeometry>
        </mxCell>
        <mxCell id="okkkJ67Kpcoh9UKUz367-11" value="" style="edgeStyle=elbowEdgeStyle;elbow=horizontal;endArrow=classic;html=1;curved=0;rounded=0;endSize=8;startSize=8;exitX=1;exitY=0.5;exitDx=0;exitDy=0;entryX=0;entryY=0.5;entryDx=0;entryDy=0;dashed=1;fillColor=#f8cecc;strokeColor=#b85450;" parent="TxJ0xP_LkDmAu8PP4f3W-2" source="okkkJ67Kpcoh9UKUz367-9" target="okkkJ67Kpcoh9UKUz367-8" edge="1">
          <mxGeometry width="50" height="50" relative="1" as="geometry">
            <mxPoint x="610" y="450" as="sourcePoint" />
            <mxPoint x="866" y="450" as="targetPoint" />
          </mxGeometry>
        </mxCell>
        <mxCell id="okkkJ67Kpcoh9UKUz367-14" value="" style="edgeStyle=elbowEdgeStyle;elbow=horizontal;endArrow=classic;html=1;curved=0;rounded=0;endSize=8;startSize=8;exitX=1;exitY=0.5;exitDx=0;exitDy=0;entryX=0;entryY=0.5;entryDx=0;entryDy=0;fillColor=#e1d5e7;strokeColor=#9673a6;" parent="TxJ0xP_LkDmAu8PP4f3W-2" source="okkkJ67Kpcoh9UKUz367-12" target="okkkJ67Kpcoh9UKUz367-13" edge="1">
          <mxGeometry width="50" height="50" relative="1" as="geometry">
            <mxPoint x="165" y="167" as="sourcePoint" />
            <mxPoint x="260" y="167" as="targetPoint" />
            <Array as="points" />
          </mxGeometry>
        </mxCell>
        <mxCell id="shTFZTxLQgx-P-sXeex--0" value="" style="edgeStyle=elbowEdgeStyle;elbow=horizontal;endArrow=classic;html=1;curved=0;rounded=0;endSize=8;startSize=8;exitX=1;exitY=0.5;exitDx=0;exitDy=0;dashed=1;fillColor=#f8cecc;strokeColor=#b85450;" edge="1" parent="TxJ0xP_LkDmAu8PP4f3W-1">
          <mxGeometry width="50" height="50" relative="1" as="geometry">
            <mxPoint x="820" y="580" as="sourcePoint" />
            <mxPoint x="850" y="580" as="targetPoint" />
          </mxGeometry>
        </mxCell>
        <mxCell id="shTFZTxLQgx-P-sXeex--1" value="" style="edgeStyle=elbowEdgeStyle;elbow=horizontal;endArrow=classic;html=1;curved=0;rounded=0;endSize=8;startSize=8;exitX=1;exitY=0.5;exitDx=0;exitDy=0;fillColor=#f8cecc;strokeColor=#b85450;" edge="1" parent="TxJ0xP_LkDmAu8PP4f3W-1">
          <mxGeometry width="50" height="50" relative="1" as="geometry">
            <mxPoint x="820" y="597" as="sourcePoint" />
            <mxPoint x="850" y="597" as="targetPoint" />
          </mxGeometry>
        </mxCell>
        <mxCell id="shTFZTxLQgx-P-sXeex--2" value="optional flow" style="text;html=1;strokeColor=none;fillColor=none;align=left;verticalAlign=middle;whiteSpace=wrap;rounded=0;" vertex="1" parent="TxJ0xP_LkDmAu8PP4f3W-1">
          <mxGeometry x="860" y="570" width="90" height="20" as="geometry" />
        </mxCell>
        <mxCell id="shTFZTxLQgx-P-sXeex--3" value="mandatory flow" style="text;html=1;strokeColor=none;fillColor=none;align=left;verticalAlign=middle;whiteSpace=wrap;rounded=0;" vertex="1" parent="TxJ0xP_LkDmAu8PP4f3W-1">
          <mxGeometry x="860" y="586" width="90" height="20" as="geometry" />
        </mxCell>
      </root>
    </mxGraphModel>
  </diagram>
  <diagram id="E9JZm5g3ujnK0vpZf0Wo" name="Principal Propagation">
    <mxGraphModel dx="1147" dy="669" grid="1" gridSize="10" guides="1" tooltips="1" connect="1" arrows="1" fold="1" page="1" pageScale="1" pageWidth="850" pageHeight="1100" math="0" shadow="0">
      <root>
        <mxCell id="0" />
        <mxCell id="1" parent="0" />
        <mxCell id="8CwRrsDVTh27Dw83Pmwj-2" value="" style="image;aspect=fixed;html=1;points=[];align=center;fontSize=12;image=img/lib/azure2/identity/App_Registrations.svg;" vertex="1" parent="1">
          <mxGeometry x="331.81" y="294" width="39.38" height="40" as="geometry" />
        </mxCell>
        <mxCell id="8CwRrsDVTh27Dw83Pmwj-4" value="" style="image;sketch=0;aspect=fixed;html=1;points=[];align=center;fontSize=12;image=img/lib/mscae/API_Management.svg;" vertex="1" parent="1">
          <mxGeometry x="326.5" y="350" width="50" height="42" as="geometry" />
        </mxCell>
        <mxCell id="8CwRrsDVTh27Dw83Pmwj-5" value="" style="image;aspect=fixed;html=1;points=[];align=center;fontSize=12;image=img/lib/azure2/compute/App_Services.svg;imageBackground=default;" vertex="1" parent="1">
          <mxGeometry x="152.69" y="350.5" width="43" height="43" as="geometry" />
        </mxCell>
        <mxCell id="8CwRrsDVTh27Dw83Pmwj-8" value="" style="image;sketch=0;aspect=fixed;html=1;points=[];align=center;fontSize=12;image=img/lib/mscae/SAP_HANA_on_Azure.svg;" vertex="1" parent="1">
          <mxGeometry x="517.4200000000001" y="359.5" width="50" height="25" as="geometry" />
        </mxCell>
        <mxCell id="8CwRrsDVTh27Dw83Pmwj-25" style="edgeStyle=orthogonalEdgeStyle;orthogonalLoop=1;jettySize=auto;html=1;exitX=1;exitY=0.5;exitDx=0;exitDy=0;entryX=0.5;entryY=0;entryDx=0;entryDy=0;rounded=1;" edge="1" parent="1" source="8CwRrsDVTh27Dw83Pmwj-9" target="8CwRrsDVTh27Dw83Pmwj-23">
          <mxGeometry relative="1" as="geometry" />
        </mxCell>
        <mxCell id="8CwRrsDVTh27Dw83Pmwj-26" style="edgeStyle=orthogonalEdgeStyle;rounded=0;orthogonalLoop=1;jettySize=auto;html=1;exitX=0.5;exitY=1;exitDx=0;exitDy=0;entryX=0.5;entryY=0;entryDx=0;entryDy=0;" edge="1" parent="1" source="8CwRrsDVTh27Dw83Pmwj-9" target="8CwRrsDVTh27Dw83Pmwj-20">
          <mxGeometry relative="1" as="geometry" />
        </mxCell>
        <mxCell id="8CwRrsDVTh27Dw83Pmwj-27" style="edgeStyle=orthogonalEdgeStyle;rounded=1;orthogonalLoop=1;jettySize=auto;html=1;exitX=0;exitY=0.5;exitDx=0;exitDy=0;" edge="1" parent="1" source="8CwRrsDVTh27Dw83Pmwj-9" target="8CwRrsDVTh27Dw83Pmwj-19">
          <mxGeometry relative="1" as="geometry" />
        </mxCell>
        <mxCell id="8CwRrsDVTh27Dw83Pmwj-9" value="" style="shape=image;verticalLabelPosition=bottom;labelBackgroundColor=default;verticalAlign=top;aspect=fixed;imageAspect=0;image=https://circyl.co.uk/wp-content/uploads/2023/08/Entra-ID-logo.png;" vertex="1" parent="1">
          <mxGeometry x="318.25" y="140" width="66.5" height="59.07" as="geometry" />
        </mxCell>
        <mxCell id="8CwRrsDVTh27Dw83Pmwj-10" value="" style="image;aspect=fixed;html=1;points=[];align=center;fontSize=12;image=img/lib/azure2/identity/App_Registrations.svg;" vertex="1" parent="1">
          <mxGeometry x="156.31" y="294" width="39.38" height="40" as="geometry" />
        </mxCell>
        <mxCell id="8CwRrsDVTh27Dw83Pmwj-11" value="" style="image;aspect=fixed;html=1;points=[];align=center;fontSize=12;image=img/lib/azure2/identity/App_Registrations.svg;" vertex="1" parent="1">
          <mxGeometry x="500.31" y="294" width="39.38" height="40" as="geometry" />
        </mxCell>
        <mxCell id="8CwRrsDVTh27Dw83Pmwj-12" value="&lt;b&gt;SAP Solution&lt;/b&gt;&lt;br&gt;&lt;pre&gt;&lt;font style=&quot;font-size: 10px;&quot;&gt;backend&lt;/font&gt;&lt;/pre&gt;" style="text;html=1;strokeColor=none;fillColor=none;align=center;verticalAlign=middle;whiteSpace=wrap;rounded=0;" vertex="1" parent="1">
          <mxGeometry x="490" y="413" width="100" height="60" as="geometry" />
        </mxCell>
        <mxCell id="8CwRrsDVTh27Dw83Pmwj-13" value="&lt;b&gt;Azure Apps&lt;/b&gt;&lt;br&gt;&lt;pre&gt;&lt;font style=&quot;font-size: 10px;&quot;&gt;N front-ends&lt;/font&gt;&lt;/pre&gt;" style="text;html=1;strokeColor=none;fillColor=none;align=center;verticalAlign=middle;whiteSpace=wrap;rounded=0;" vertex="1" parent="1">
          <mxGeometry x="126" y="414" width="100" height="60" as="geometry" />
        </mxCell>
        <mxCell id="8CwRrsDVTh27Dw83Pmwj-14" value="&lt;b&gt;Azure API Management&lt;/b&gt;&lt;br&gt;&lt;pre&gt;&lt;font style=&quot;font-size: 10px;&quot;&gt;middle tier&lt;/font&gt;&lt;/pre&gt;" style="text;html=1;strokeColor=none;fillColor=none;align=center;verticalAlign=middle;whiteSpace=wrap;rounded=0;" vertex="1" parent="1">
          <mxGeometry x="301.5" y="407" width="100" height="60" as="geometry" />
        </mxCell>
        <mxCell id="8CwRrsDVTh27Dw83Pmwj-18" value="&lt;b&gt;Microsoft Entra ID&lt;/b&gt;&lt;br&gt;&lt;pre&gt;&lt;font style=&quot;font-size: 10px;&quot;&gt;Identity Provider&lt;/font&gt;&lt;/pre&gt;" style="text;html=1;strokeColor=none;fillColor=none;align=center;verticalAlign=middle;whiteSpace=wrap;rounded=0;" vertex="1" parent="1">
          <mxGeometry x="296.5" y="80" width="108.5" height="60" as="geometry" />
        </mxCell>
        <mxCell id="8CwRrsDVTh27Dw83Pmwj-19" value="App Registration" style="text;html=1;strokeColor=none;fillColor=none;align=center;verticalAlign=middle;whiteSpace=wrap;rounded=0;" vertex="1" parent="1">
          <mxGeometry x="144.19" y="260" width="60" height="30" as="geometry" />
        </mxCell>
        <mxCell id="8CwRrsDVTh27Dw83Pmwj-20" value="App Registration" style="text;html=1;strokeColor=none;fillColor=none;align=center;verticalAlign=middle;whiteSpace=wrap;rounded=0;" vertex="1" parent="1">
          <mxGeometry x="321.5" y="260" width="60" height="30" as="geometry" />
        </mxCell>
        <mxCell id="8CwRrsDVTh27Dw83Pmwj-21" value="Enterprise App Registration" style="text;html=1;strokeColor=none;fillColor=none;align=center;verticalAlign=middle;whiteSpace=wrap;rounded=0;" vertex="1" parent="1">
          <mxGeometry x="567.42" y="294" width="110" height="30" as="geometry" />
        </mxCell>
        <mxCell id="8CwRrsDVTh27Dw83Pmwj-22" value="" style="image;aspect=fixed;html=1;points=[];align=center;fontSize=12;image=img/lib/azure2/identity/Enterprise_Applications.svg;" vertex="1" parent="1">
          <mxGeometry x="550" y="300" width="28" height="28" as="geometry" />
        </mxCell>
        <mxCell id="8CwRrsDVTh27Dw83Pmwj-23" value="App Registration" style="text;html=1;strokeColor=none;fillColor=none;align=center;verticalAlign=middle;whiteSpace=wrap;rounded=0;" vertex="1" parent="1">
          <mxGeometry x="490" y="260" width="60" height="30" as="geometry" />
        </mxCell>
        <mxCell id="8CwRrsDVTh27Dw83Pmwj-28" value="" style="endArrow=classic;html=1;rounded=0;exitX=1.019;exitY=0.369;exitDx=0;exitDy=0;exitPerimeter=0;entryX=-0.021;entryY=0.369;entryDx=0;entryDy=0;entryPerimeter=0;dashed=1;" edge="1" parent="1" source="8CwRrsDVTh27Dw83Pmwj-10" target="8CwRrsDVTh27Dw83Pmwj-2">
          <mxGeometry width="50" height="50" relative="1" as="geometry">
            <mxPoint x="390" y="310" as="sourcePoint" />
            <mxPoint x="440" y="260" as="targetPoint" />
          </mxGeometry>
        </mxCell>
        <mxCell id="8CwRrsDVTh27Dw83Pmwj-29" value="authorized" style="edgeLabel;html=1;align=center;verticalAlign=middle;resizable=0;points=[];" vertex="1" connectable="0" parent="8CwRrsDVTh27Dw83Pmwj-28">
          <mxGeometry x="-0.1044" y="1" relative="1" as="geometry">
            <mxPoint as="offset" />
          </mxGeometry>
        </mxCell>
        <mxCell id="8CwRrsDVTh27Dw83Pmwj-30" value="" style="endArrow=classic;html=1;rounded=0;exitX=0.982;exitY=0.398;exitDx=0;exitDy=0;exitPerimeter=0;entryX=-0.039;entryY=0.39;entryDx=0;entryDy=0;entryPerimeter=0;dashed=1;" edge="1" parent="1" source="8CwRrsDVTh27Dw83Pmwj-2" target="8CwRrsDVTh27Dw83Pmwj-11">
          <mxGeometry width="50" height="50" relative="1" as="geometry">
            <mxPoint x="206" y="319" as="sourcePoint" />
            <mxPoint x="341" y="319" as="targetPoint" />
          </mxGeometry>
        </mxCell>
        <mxCell id="8CwRrsDVTh27Dw83Pmwj-31" value="authorized" style="edgeLabel;html=1;align=center;verticalAlign=middle;resizable=0;points=[];" vertex="1" connectable="0" parent="8CwRrsDVTh27Dw83Pmwj-30">
          <mxGeometry x="-0.1044" y="1" relative="1" as="geometry">
            <mxPoint as="offset" />
          </mxGeometry>
        </mxCell>
        <mxCell id="8CwRrsDVTh27Dw83Pmwj-32" style="edgeStyle=orthogonalEdgeStyle;rounded=0;orthogonalLoop=1;jettySize=auto;html=1;exitX=1;exitY=0.25;exitDx=0;exitDy=0;entryX=0.374;entryY=-0.113;entryDx=0;entryDy=0;entryPerimeter=0;strokeColor=default;startArrow=classic;startFill=1;dashed=1;" edge="1" parent="1" source="8CwRrsDVTh27Dw83Pmwj-9" target="8CwRrsDVTh27Dw83Pmwj-22">
          <mxGeometry relative="1" as="geometry">
            <mxPoint x="395" y="180" as="sourcePoint" />
            <mxPoint x="530" y="270" as="targetPoint" />
          </mxGeometry>
        </mxCell>
        <mxCell id="8CwRrsDVTh27Dw83Pmwj-33" value="trust" style="edgeLabel;html=1;align=center;verticalAlign=middle;resizable=0;points=[];" vertex="1" connectable="0" parent="8CwRrsDVTh27Dw83Pmwj-32">
          <mxGeometry x="0.4357" relative="1" as="geometry">
            <mxPoint as="offset" />
          </mxGeometry>
        </mxCell>
        <mxCell id="8CwRrsDVTh27Dw83Pmwj-34" value="" style="endArrow=classic;html=1;rounded=0;" edge="1" parent="1">
          <mxGeometry width="50" height="50" relative="1" as="geometry">
            <mxPoint x="207" y="370" as="sourcePoint" />
            <mxPoint x="317" y="370" as="targetPoint" />
          </mxGeometry>
        </mxCell>
        <mxCell id="8CwRrsDVTh27Dw83Pmwj-35" value="OData" style="edgeLabel;html=1;align=center;verticalAlign=middle;resizable=0;points=[];" vertex="1" connectable="0" parent="8CwRrsDVTh27Dw83Pmwj-34">
          <mxGeometry x="-0.1044" y="1" relative="1" as="geometry">
            <mxPoint as="offset" />
          </mxGeometry>
        </mxCell>
        <mxCell id="8CwRrsDVTh27Dw83Pmwj-36" value="" style="endArrow=classic;html=1;rounded=0;" edge="1" parent="1">
          <mxGeometry width="50" height="50" relative="1" as="geometry">
            <mxPoint x="390.31" y="370.78" as="sourcePoint" />
            <mxPoint x="500.31" y="370.78" as="targetPoint" />
          </mxGeometry>
        </mxCell>
        <mxCell id="8CwRrsDVTh27Dw83Pmwj-37" value="OData" style="edgeLabel;html=1;align=center;verticalAlign=middle;resizable=0;points=[];" vertex="1" connectable="0" parent="8CwRrsDVTh27Dw83Pmwj-36">
          <mxGeometry x="-0.1044" y="1" relative="1" as="geometry">
            <mxPoint as="offset" />
          </mxGeometry>
        </mxCell>
        <mxCell id="8CwRrsDVTh27Dw83Pmwj-39" value="" style="image;aspect=fixed;html=1;points=[];align=center;fontSize=12;image=img/lib/azure2/compute/App_Services.svg;" vertex="1" parent="1">
          <mxGeometry x="147.19" y="353.5" width="43" height="43" as="geometry" />
        </mxCell>
        <mxCell id="8CwRrsDVTh27Dw83Pmwj-40" value="" style="image;aspect=fixed;html=1;points=[];align=center;fontSize=12;image=img/lib/azure2/compute/App_Services.svg;strokeColor=#80FF00;" vertex="1" parent="1">
          <mxGeometry x="140.19" y="357.5" width="43" height="43" as="geometry" />
        </mxCell>
        <mxCell id="8CwRrsDVTh27Dw83Pmwj-46" style="edgeStyle=none;rounded=0;orthogonalLoop=1;jettySize=auto;html=1;exitX=0.5;exitY=0;exitDx=0;exitDy=0;endArrow=none;endFill=0;dashed=1;dashPattern=8 8;" edge="1" parent="1" source="8CwRrsDVTh27Dw83Pmwj-44">
          <mxGeometry relative="1" as="geometry">
            <mxPoint x="256.0372670807453" y="370" as="targetPoint" />
          </mxGeometry>
        </mxCell>
        <mxCell id="8CwRrsDVTh27Dw83Pmwj-44" value="&lt;font color=&quot;#ff0000&quot; style=&quot;font-size: 10px;&quot;&gt;OAuth2/OIDC&lt;/font&gt;" style="text;html=1;strokeColor=none;fillColor=none;align=center;verticalAlign=middle;whiteSpace=wrap;rounded=0;" vertex="1" parent="1">
          <mxGeometry x="226" y="383.5" width="60" height="13" as="geometry" />
        </mxCell>
        <mxCell id="8CwRrsDVTh27Dw83Pmwj-49" style="edgeStyle=none;rounded=0;orthogonalLoop=1;jettySize=auto;html=1;exitX=0.5;exitY=0;exitDx=0;exitDy=0;endArrow=none;endFill=0;dashed=1;dashPattern=8 8;" edge="1" parent="1" source="8CwRrsDVTh27Dw83Pmwj-45">
          <mxGeometry relative="1" as="geometry">
            <mxPoint x="441.595744680851" y="370" as="targetPoint" />
          </mxGeometry>
        </mxCell>
        <mxCell id="8CwRrsDVTh27Dw83Pmwj-51" value="&lt;ul style=&quot;font-size: 10px;&quot;&gt;&lt;li&gt;&lt;span style=&quot;background-color: initial;&quot;&gt;&lt;font style=&quot;font-size: 10px;&quot; face=&quot;Courier New&quot;&gt;SAP S/4HANA Cloud private edition&lt;/font&gt;&lt;/span&gt;&lt;/li&gt;&lt;li&gt;&lt;span style=&quot;background-color: initial;&quot;&gt;&lt;font style=&quot;font-size: 10px;&quot; face=&quot;Courier New&quot;&gt;SAP S/4HANA Cloud&amp;nbsp;public edition&lt;/font&gt;&lt;/span&gt;&lt;/li&gt;&lt;li&gt;&lt;span style=&quot;background-color: initial;&quot;&gt;&lt;font style=&quot;font-size: 10px;&quot; face=&quot;Courier New&quot;&gt;SAP Gateway&lt;/font&gt;&lt;/span&gt;&lt;/li&gt;&lt;li&gt;&lt;span style=&quot;background-color: initial;&quot;&gt;&lt;font style=&quot;font-size: 10px;&quot; face=&quot;Courier New&quot;&gt;SAP Business Technology Platform&lt;/font&gt;&lt;/span&gt;&lt;/li&gt;&lt;li&gt;&lt;span style=&quot;background-color: initial;&quot;&gt;&lt;font style=&quot;font-size: 10px;&quot; face=&quot;Courier New&quot;&gt;SAP RAP &amp;amp; SAP CAP&lt;/font&gt;&lt;/span&gt;&lt;/li&gt;&lt;li&gt;&lt;font style=&quot;font-size: 10px;&quot; face=&quot;Courier New&quot;&gt;SAP Business Accelerator Hub&lt;/font&gt;&lt;/li&gt;&lt;li&gt;&lt;font style=&quot;font-size: 10px;&quot; face=&quot;Courier New&quot;&gt;SAP Integration Suite&lt;/font&gt;&lt;/li&gt;&lt;/ul&gt;" style="text;html=1;strokeColor=none;fillColor=none;align=left;verticalAlign=middle;whiteSpace=wrap;rounded=0;" vertex="1" parent="1">
          <mxGeometry x="640" y="313.25" width="250" height="123.5" as="geometry" />
        </mxCell>
        <mxCell id="8CwRrsDVTh27Dw83Pmwj-45" value="&lt;font color=&quot;#ff0000&quot; style=&quot;font-size: 10px;&quot;&gt;Principal Propagation&lt;/font&gt;" style="text;html=1;strokeColor=none;fillColor=none;align=center;verticalAlign=middle;whiteSpace=wrap;rounded=0;" vertex="1" parent="1">
          <mxGeometry x="376.5" y="384.5" width="130" height="13" as="geometry" />
        </mxCell>
        <mxCell id="8CwRrsDVTh27Dw83Pmwj-54" value="" style="endArrow=none;html=1;rounded=0;strokeWidth=1;dashed=1;dashPattern=1 2;shadow=0;strokeColor=#ababab;" edge="1" parent="1">
          <mxGeometry width="50" height="50" relative="1" as="geometry">
            <mxPoint x="570" y="360" as="sourcePoint" />
            <mxPoint x="690" y="320" as="targetPoint" />
          </mxGeometry>
        </mxCell>
        <mxCell id="8CwRrsDVTh27Dw83Pmwj-55" value="" style="endArrow=none;html=1;rounded=0;strokeWidth=1;dashed=1;dashPattern=1 2;shadow=0;strokeColor=#ababab;" edge="1" parent="1">
          <mxGeometry width="50" height="50" relative="1" as="geometry">
            <mxPoint x="556" y="386" as="sourcePoint" />
            <mxPoint x="686" y="426" as="targetPoint" />
          </mxGeometry>
        </mxCell>
      </root>
    </mxGraphModel>
  </diagram>
</mxfile>
